<mxfile host="app.diagrams.net" modified="2024-07-05T11:32:00.518Z" agent="Mozilla/5.0 (Windows NT 10.0; Win64; x64) AppleWebKit/537.36 (KHTML, like Gecko) Chrome/126.0.0.0 Safari/537.36" etag="83sBDK89KOoCB4elclCi" version="24.6.4" type="github">
  <diagram name="Page-1" id="f4Uhgl8QoOEB7_nOkcwg">
    <mxGraphModel dx="1050" dy="1657" grid="1" gridSize="10" guides="1" tooltips="1" connect="1" arrows="1" fold="1" page="1" pageScale="1" pageWidth="850" pageHeight="1100" math="0" shadow="0">
      <root>
        <mxCell id="0" />
        <mxCell id="1" parent="0" />
        <mxCell id="vKj_o1oa9nbk5Jd2Geho-6" style="edgeStyle=orthogonalEdgeStyle;rounded=0;orthogonalLoop=1;jettySize=auto;html=1;entryX=0;entryY=0.5;entryDx=0;entryDy=0;" edge="1" parent="1" source="vKj_o1oa9nbk5Jd2Geho-1" target="vKj_o1oa9nbk5Jd2Geho-2">
          <mxGeometry relative="1" as="geometry" />
        </mxCell>
        <mxCell id="vKj_o1oa9nbk5Jd2Geho-1" value="Make Follow Request" style="html=1;outlineConnect=0;whiteSpace=wrap;fillColor=#EBEBEB;shape=mxgraph.archimate3.application;appType=event;archiType=rounded" vertex="1" parent="1">
          <mxGeometry x="100" y="80" width="150" height="80" as="geometry" />
        </mxCell>
        <mxCell id="vKj_o1oa9nbk5Jd2Geho-12" style="edgeStyle=orthogonalEdgeStyle;rounded=0;orthogonalLoop=1;jettySize=auto;html=1;exitX=0.5;exitY=1;exitDx=0;exitDy=0;" edge="1" parent="1" source="vKj_o1oa9nbk5Jd2Geho-2">
          <mxGeometry relative="1" as="geometry">
            <mxPoint x="380" y="280" as="targetPoint" />
          </mxGeometry>
        </mxCell>
        <mxCell id="vKj_o1oa9nbk5Jd2Geho-2" value="If the requester and the requested same users" style="rhombus;whiteSpace=wrap;html=1;" vertex="1" parent="1">
          <mxGeometry x="310" y="42.5" width="140" height="155" as="geometry" />
        </mxCell>
        <mxCell id="vKj_o1oa9nbk5Jd2Geho-7" value="" style="points=[[0.145,0.145,0],[0.5,0,0],[0.855,0.145,0],[1,0.5,0],[0.855,0.855,0],[0.5,1,0],[0.145,0.855,0],[0,0.5,0]];shape=mxgraph.bpmn.event;html=1;verticalLabelPosition=bottom;labelBackgroundColor=#ffffff;verticalAlign=top;align=center;perimeter=ellipsePerimeter;outlineConnect=0;aspect=fixed;outline=end;symbol=terminate2;" vertex="1" parent="1">
          <mxGeometry x="520" y="-5" width="50" height="50" as="geometry" />
        </mxCell>
        <mxCell id="vKj_o1oa9nbk5Jd2Geho-10" style="edgeStyle=orthogonalEdgeStyle;rounded=0;orthogonalLoop=1;jettySize=auto;html=1;exitX=1;exitY=0.5;exitDx=0;exitDy=0;entryX=0.5;entryY=1;entryDx=0;entryDy=0;entryPerimeter=0;" edge="1" parent="1" source="vKj_o1oa9nbk5Jd2Geho-2" target="vKj_o1oa9nbk5Jd2Geho-7">
          <mxGeometry relative="1" as="geometry" />
        </mxCell>
        <mxCell id="vKj_o1oa9nbk5Jd2Geho-11" value="yes" style="text;html=1;align=center;verticalAlign=middle;resizable=0;points=[];autosize=1;strokeColor=none;fillColor=none;" vertex="1" parent="1">
          <mxGeometry x="460" y="88" width="40" height="30" as="geometry" />
        </mxCell>
        <mxCell id="vKj_o1oa9nbk5Jd2Geho-13" value="No" style="text;html=1;align=center;verticalAlign=middle;resizable=0;points=[];autosize=1;strokeColor=none;fillColor=none;" vertex="1" parent="1">
          <mxGeometry x="380" y="218" width="40" height="30" as="geometry" />
        </mxCell>
        <mxCell id="vKj_o1oa9nbk5Jd2Geho-18" value="" style="rhombus;whiteSpace=wrap;html=1;" vertex="1" parent="1">
          <mxGeometry x="300" y="280" width="160" height="160" as="geometry" />
        </mxCell>
      </root>
    </mxGraphModel>
  </diagram>
</mxfile>
